<svg width="389" height="63" viewBox="0 0 389 63" fill="none" xmlns="http://www.w3.org/2000/svg">
<g filter="url(#filter0_d_3_151)">
<mask id="path-1-outside-1_3_151" maskUnits="userSpaceOnUse" x="3" y="-1" width="383" height="57" fill="black">
<rect fill="white" x="3" y="-1" width="383" height="57"/>
<path d="M38.7227 44.5078V54H12.8477V44.5078H38.7227ZM17.2422 2.8125V54H4.90234V2.8125H17.2422ZM65.0898 44.7539V15.9609H76.9727V54H65.8633L65.0898 44.7539ZM66.2148 37.0195L69.3086 36.9492C69.3086 39.5039 69.0039 41.8711 68.3945 44.0508C67.7852 46.207 66.8828 48.082 65.6875 49.6758C64.5156 51.2695 63.0625 52.5117 61.3281 53.4023C59.6172 54.2695 57.6367 54.7031 55.3867 54.7031C53.5117 54.7031 51.7891 54.4453 50.2188 53.9297C48.6719 53.3906 47.3359 52.5586 46.2109 51.4336C45.0859 50.2852 44.207 48.8203 43.5742 47.0391C42.9648 45.2344 42.6602 43.0781 42.6602 40.5703V15.9609H54.5078V40.6406C54.5078 41.4844 54.6133 42.2109 54.8242 42.8203C55.0352 43.4297 55.3398 43.9453 55.7383 44.3672C56.1367 44.7656 56.6289 45.0703 57.2148 45.2812C57.8242 45.4688 58.5156 45.5625 59.2891 45.5625C61.0703 45.5625 62.4648 45.1875 63.4727 44.4375C64.4805 43.6875 65.1836 42.668 65.582 41.3789C66.0039 40.0898 66.2148 38.6367 66.2148 37.0195ZM103.27 44.4375V28.7578C103.27 27.6797 103.117 26.7539 102.812 25.9805C102.508 25.207 102.027 24.6094 101.371 24.1875C100.715 23.7422 99.8359 23.5195 98.7344 23.5195C97.8438 23.5195 97.082 23.6719 96.4492 23.9766C95.8164 24.2812 95.3359 24.7383 95.0078 25.3477C94.6797 25.957 94.5156 26.7305 94.5156 27.668H82.668C82.668 25.9102 83.0547 24.2812 83.8281 22.7812C84.625 21.2578 85.75 19.9336 87.2031 18.8086C88.6797 17.6836 90.4375 16.8164 92.4766 16.207C94.5391 15.5742 96.8359 15.2578 99.3672 15.2578C102.391 15.2578 105.086 15.7617 107.453 16.7695C109.844 17.7773 111.73 19.2891 113.113 21.3047C114.496 23.2969 115.188 25.8047 115.188 28.8281V44.4023C115.188 46.8867 115.328 48.7734 115.609 50.0625C115.891 51.3281 116.289 52.4414 116.805 53.4023V54H104.922C104.359 52.8281 103.938 51.3984 103.656 49.7109C103.398 48 103.27 46.2422 103.27 44.4375ZM104.711 30.7617L104.781 37.0898H99.543C98.4414 37.0898 97.5039 37.2422 96.7305 37.5469C95.9805 37.8516 95.3711 38.2734 94.9023 38.8125C94.457 39.3281 94.1289 39.9141 93.918 40.5703C93.7305 41.2266 93.6367 41.918 93.6367 42.6445C93.6367 43.3477 93.8008 43.9805 94.1289 44.543C94.4805 45.082 94.9492 45.5039 95.5352 45.8086C96.1211 46.1133 96.7773 46.2656 97.5039 46.2656C98.8164 46.2656 99.9297 46.0195 100.844 45.5273C101.781 45.0117 102.496 44.3906 102.988 43.6641C103.48 42.9375 103.727 42.2578 103.727 41.625L106.328 46.4766C105.859 47.4141 105.32 48.3633 104.711 49.3242C104.125 50.2852 103.387 51.1758 102.496 51.9961C101.629 52.793 100.562 53.4492 99.2969 53.9648C98.0312 54.457 96.4961 54.7031 94.6914 54.7031C92.3477 54.7031 90.1914 54.2227 88.2227 53.2617C86.2773 52.3008 84.7188 50.9648 83.5469 49.2539C82.375 47.5195 81.7891 45.5273 81.7891 43.2773C81.7891 41.3086 82.1406 39.5508 82.8438 38.0039C83.5703 36.457 84.6602 35.1445 86.1133 34.0664C87.5664 32.9883 89.418 32.168 91.668 31.6055C93.918 31.043 96.5664 30.7617 99.6133 30.7617H104.711ZM133.398 24.082V54H121.551V15.9609H132.66L133.398 24.082ZM131.992 33.6797L129.215 33.75C129.215 30.8438 129.566 28.2539 130.27 25.9805C130.973 23.6836 131.969 21.7383 133.258 20.1445C134.547 18.5508 136.082 17.3437 137.863 16.5234C139.668 15.6797 141.672 15.2578 143.875 15.2578C145.633 15.2578 147.238 15.5156 148.691 16.0312C150.168 16.5469 151.434 17.3789 152.488 18.5273C153.566 19.6758 154.387 21.1992 154.949 23.0977C155.535 24.9727 155.828 27.293 155.828 30.0586V54H143.91V30.0234C143.91 28.5 143.699 27.3398 143.277 26.543C142.855 25.7227 142.246 25.1602 141.449 24.8555C140.652 24.5508 139.68 24.3984 138.531 24.3984C137.312 24.3984 136.281 24.6328 135.438 25.1016C134.594 25.5703 133.914 26.2266 133.398 27.0703C132.906 27.8906 132.543 28.8633 132.309 29.9883C132.098 31.1133 131.992 32.3438 131.992 33.6797ZM210.004 36.668H222.309C222.145 40.2305 221.184 43.3711 219.426 46.0898C217.668 48.8086 215.23 50.9297 212.113 52.4531C209.02 53.9531 205.363 54.7031 201.145 54.7031C197.723 54.7031 194.664 54.1289 191.969 52.9805C189.297 51.832 187.023 50.1797 185.148 48.0234C183.297 45.8672 181.879 43.2539 180.895 40.1836C179.934 37.1133 179.453 33.6562 179.453 29.8125V27.0352C179.453 23.1914 179.957 19.7344 180.965 16.6641C181.996 13.5703 183.449 10.9453 185.324 8.78906C187.223 6.60938 189.496 4.94531 192.145 3.79688C194.793 2.64844 197.734 2.07422 200.969 2.07422C205.422 2.07422 209.184 2.87109 212.254 4.46484C215.324 6.05859 217.703 8.25 219.391 11.0391C221.078 13.8047 222.074 16.957 222.379 20.4961H210.074C210.027 18.5742 209.699 16.9688 209.09 15.6797C208.48 14.3672 207.52 13.3828 206.207 12.7266C204.895 12.0703 203.148 11.7422 200.969 11.7422C199.445 11.7422 198.121 12.0234 196.996 12.5859C195.871 13.1484 194.934 14.0391 194.184 15.2578C193.434 16.4766 192.871 18.0586 192.496 20.0039C192.145 21.9258 191.969 24.2461 191.969 26.9648V29.8125C191.969 32.5312 192.133 34.8516 192.461 36.7734C192.789 38.6953 193.316 40.2656 194.043 41.4844C194.77 42.7031 195.707 43.6055 196.855 44.1914C198.027 44.7539 199.457 45.0352 201.145 45.0352C203.02 45.0352 204.602 44.7422 205.891 44.1562C207.18 43.5469 208.176 42.6328 208.879 41.4141C209.582 40.1719 209.957 38.5898 210.004 36.668ZM247.34 44.4375V28.7578C247.34 27.6797 247.188 26.7539 246.883 25.9805C246.578 25.207 246.098 24.6094 245.441 24.1875C244.785 23.7422 243.906 23.5195 242.805 23.5195C241.914 23.5195 241.152 23.6719 240.52 23.9766C239.887 24.2812 239.406 24.7383 239.078 25.3477C238.75 25.957 238.586 26.7305 238.586 27.668H226.738C226.738 25.9102 227.125 24.2812 227.898 22.7812C228.695 21.2578 229.82 19.9336 231.273 18.8086C232.75 17.6836 234.508 16.8164 236.547 16.207C238.609 15.5742 240.906 15.2578 243.438 15.2578C246.461 15.2578 249.156 15.7617 251.523 16.7695C253.914 17.7773 255.801 19.2891 257.184 21.3047C258.566 23.2969 259.258 25.8047 259.258 28.8281V44.4023C259.258 46.8867 259.398 48.7734 259.68 50.0625C259.961 51.3281 260.359 52.4414 260.875 53.4023V54H248.992C248.43 52.8281 248.008 51.3984 247.727 49.7109C247.469 48 247.34 46.2422 247.34 44.4375ZM248.781 30.7617L248.852 37.0898H243.613C242.512 37.0898 241.574 37.2422 240.801 37.5469C240.051 37.8516 239.441 38.2734 238.973 38.8125C238.527 39.3281 238.199 39.9141 237.988 40.5703C237.801 41.2266 237.707 41.918 237.707 42.6445C237.707 43.3477 237.871 43.9805 238.199 44.543C238.551 45.082 239.02 45.5039 239.605 45.8086C240.191 46.1133 240.848 46.2656 241.574 46.2656C242.887 46.2656 244 46.0195 244.914 45.5273C245.852 45.0117 246.566 44.3906 247.059 43.6641C247.551 42.9375 247.797 42.2578 247.797 41.625L250.398 46.4766C249.93 47.4141 249.391 48.3633 248.781 49.3242C248.195 50.2852 247.457 51.1758 246.566 51.9961C245.699 52.793 244.633 53.4492 243.367 53.9648C242.102 54.457 240.566 54.7031 238.762 54.7031C236.418 54.7031 234.262 54.2227 232.293 53.2617C230.348 52.3008 228.789 50.9648 227.617 49.2539C226.445 47.5195 225.859 45.5273 225.859 43.2773C225.859 41.3086 226.211 39.5508 226.914 38.0039C227.641 36.457 228.73 35.1445 230.184 34.0664C231.637 32.9883 233.488 32.168 235.738 31.6055C237.988 31.043 240.637 30.7617 243.684 30.7617H248.781ZM277.785 25.3828V54H265.938V15.9609H277.012L277.785 25.3828ZM289.035 15.6797L288.824 26.6836C288.355 26.6367 287.723 26.5781 286.926 26.5078C286.129 26.4375 285.461 26.4023 284.922 26.4023C283.539 26.4023 282.344 26.5664 281.336 26.8945C280.352 27.1992 279.531 27.668 278.875 28.3008C278.242 28.9102 277.773 29.6836 277.469 30.6211C277.188 31.5586 277.059 32.6484 277.082 33.8906L274.938 32.4844C274.938 29.9297 275.184 27.6094 275.676 25.5234C276.191 23.4141 276.918 21.5977 277.855 20.0742C278.793 18.5273 279.93 17.3437 281.266 16.5234C282.602 15.6797 284.102 15.2578 285.766 15.2578C286.352 15.2578 286.926 15.293 287.488 15.3633C288.074 15.4336 288.59 15.5391 289.035 15.6797ZM305.629 0V54H293.746V0H305.629ZM311.465 35.3672V34.6289C311.465 31.8398 311.863 29.2734 312.66 26.9297C313.457 24.5625 314.629 22.5117 316.176 20.7773C317.723 19.043 319.633 17.6953 321.906 16.7344C324.18 15.75 326.805 15.2578 329.781 15.2578C332.781 15.2578 335.418 15.75 337.691 16.7344C339.988 17.6953 341.91 19.043 343.457 20.7773C345.004 22.5117 346.176 24.5625 346.973 26.9297C347.77 29.2734 348.168 31.8398 348.168 34.6289V35.3672C348.168 38.1328 347.77 40.6992 346.973 43.0664C346.176 45.4102 345.004 47.4609 343.457 49.2188C341.91 50.9531 340 52.3008 337.727 53.2617C335.453 54.2227 332.828 54.7031 329.852 54.7031C326.875 54.7031 324.238 54.2227 321.941 53.2617C319.645 52.3008 317.723 50.9531 316.176 49.2188C314.629 47.4609 313.457 45.4102 312.66 43.0664C311.863 40.6992 311.465 38.1328 311.465 35.3672ZM323.312 34.6289V35.3672C323.312 36.7969 323.418 38.1328 323.629 39.375C323.84 40.6172 324.191 41.707 324.684 42.6445C325.176 43.5586 325.844 44.2734 326.688 44.7891C327.531 45.3047 328.586 45.5625 329.852 45.5625C331.094 45.5625 332.125 45.3047 332.945 44.7891C333.789 44.2734 334.457 43.5586 334.949 42.6445C335.441 41.707 335.793 40.6172 336.004 39.375C336.215 38.1328 336.32 36.7969 336.32 35.3672V34.6289C336.32 33.2461 336.215 31.9453 336.004 30.7266C335.793 29.4844 335.441 28.3945 334.949 27.457C334.457 26.4961 333.789 25.7461 332.945 25.207C332.102 24.668 331.047 24.3984 329.781 24.3984C328.539 24.3984 327.496 24.668 326.652 25.207C325.832 25.7461 325.176 26.4961 324.684 27.457C324.191 28.3945 323.84 29.4844 323.629 30.7266C323.418 31.9453 323.312 33.2461 323.312 34.6289ZM373.375 43.3125C373.375 42.6562 373.152 42.0938 372.707 41.625C372.285 41.1328 371.535 40.6875 370.457 40.2891C369.379 39.8672 367.867 39.4453 365.922 39.0234C364.07 38.625 362.324 38.0977 360.684 37.4414C359.066 36.7852 357.648 35.9883 356.43 35.0508C355.211 34.1133 354.25 33 353.547 31.7109C352.867 30.4219 352.527 28.9453 352.527 27.2812C352.527 25.6641 352.867 24.1406 353.547 22.7109C354.25 21.2578 355.27 19.9805 356.605 18.8789C357.965 17.7539 359.617 16.875 361.562 16.2422C363.508 15.5859 365.723 15.2578 368.207 15.2578C371.629 15.2578 374.582 15.7852 377.066 16.8398C379.551 17.8711 381.461 19.3242 382.797 21.1992C384.156 23.0508 384.836 25.1953 384.836 27.6328H372.988C372.988 26.6719 372.824 25.8516 372.496 25.1719C372.191 24.4922 371.688 23.9766 370.984 23.625C370.281 23.25 369.344 23.0625 368.172 23.0625C367.352 23.0625 366.602 23.2148 365.922 23.5195C365.266 23.8242 364.738 24.2461 364.34 24.7852C363.941 25.3242 363.742 25.957 363.742 26.6836C363.742 27.1992 363.859 27.668 364.094 28.0898C364.352 28.4883 364.738 28.8633 365.254 29.2148C365.77 29.543 366.426 29.8477 367.223 30.1289C368.02 30.3867 368.98 30.6211 370.105 30.832C372.66 31.3008 375.051 31.9688 377.277 32.8359C379.504 33.7031 381.309 34.9336 382.691 36.5273C384.098 38.1211 384.801 40.2656 384.801 42.9609C384.801 44.6484 384.414 46.207 383.641 47.6367C382.867 49.043 381.754 50.2852 380.301 51.3633C378.848 52.418 377.102 53.2383 375.062 53.8242C373.023 54.4102 370.727 54.7031 368.172 54.7031C364.539 54.7031 361.469 54.0586 358.961 52.7695C356.453 51.457 354.555 49.8164 353.266 47.8477C352 45.8555 351.367 43.8398 351.367 41.8008H362.406C362.453 42.9727 362.734 43.9336 363.25 44.6836C363.789 45.4336 364.504 45.9844 365.395 46.3359C366.285 46.6875 367.316 46.8633 368.488 46.8633C369.566 46.8633 370.457 46.7109 371.16 46.4062C371.887 46.1016 372.438 45.6914 372.812 45.1758C373.188 44.6367 373.375 44.0156 373.375 43.3125Z"/>
</mask>
<path d="M38.7227 44.5078V54H12.8477V44.5078H38.7227ZM17.2422 2.8125V54H4.90234V2.8125H17.2422ZM65.0898 44.7539V15.9609H76.9727V54H65.8633L65.0898 44.7539ZM66.2148 37.0195L69.3086 36.9492C69.3086 39.5039 69.0039 41.8711 68.3945 44.0508C67.7852 46.207 66.8828 48.082 65.6875 49.6758C64.5156 51.2695 63.0625 52.5117 61.3281 53.4023C59.6172 54.2695 57.6367 54.7031 55.3867 54.7031C53.5117 54.7031 51.7891 54.4453 50.2188 53.9297C48.6719 53.3906 47.3359 52.5586 46.2109 51.4336C45.0859 50.2852 44.207 48.8203 43.5742 47.0391C42.9648 45.2344 42.6602 43.0781 42.6602 40.5703V15.9609H54.5078V40.6406C54.5078 41.4844 54.6133 42.2109 54.8242 42.8203C55.0352 43.4297 55.3398 43.9453 55.7383 44.3672C56.1367 44.7656 56.6289 45.0703 57.2148 45.2812C57.8242 45.4688 58.5156 45.5625 59.2891 45.5625C61.0703 45.5625 62.4648 45.1875 63.4727 44.4375C64.4805 43.6875 65.1836 42.668 65.582 41.3789C66.0039 40.0898 66.2148 38.6367 66.2148 37.0195ZM103.27 44.4375V28.7578C103.27 27.6797 103.117 26.7539 102.812 25.9805C102.508 25.207 102.027 24.6094 101.371 24.1875C100.715 23.7422 99.8359 23.5195 98.7344 23.5195C97.8438 23.5195 97.082 23.6719 96.4492 23.9766C95.8164 24.2812 95.3359 24.7383 95.0078 25.3477C94.6797 25.957 94.5156 26.7305 94.5156 27.668H82.668C82.668 25.9102 83.0547 24.2812 83.8281 22.7812C84.625 21.2578 85.75 19.9336 87.2031 18.8086C88.6797 17.6836 90.4375 16.8164 92.4766 16.207C94.5391 15.5742 96.8359 15.2578 99.3672 15.2578C102.391 15.2578 105.086 15.7617 107.453 16.7695C109.844 17.7773 111.73 19.2891 113.113 21.3047C114.496 23.2969 115.188 25.8047 115.188 28.8281V44.4023C115.188 46.8867 115.328 48.7734 115.609 50.0625C115.891 51.3281 116.289 52.4414 116.805 53.4023V54H104.922C104.359 52.8281 103.938 51.3984 103.656 49.7109C103.398 48 103.27 46.2422 103.27 44.4375ZM104.711 30.7617L104.781 37.0898H99.543C98.4414 37.0898 97.5039 37.2422 96.7305 37.5469C95.9805 37.8516 95.3711 38.2734 94.9023 38.8125C94.457 39.3281 94.1289 39.9141 93.918 40.5703C93.7305 41.2266 93.6367 41.918 93.6367 42.6445C93.6367 43.3477 93.8008 43.9805 94.1289 44.543C94.4805 45.082 94.9492 45.5039 95.5352 45.8086C96.1211 46.1133 96.7773 46.2656 97.5039 46.2656C98.8164 46.2656 99.9297 46.0195 100.844 45.5273C101.781 45.0117 102.496 44.3906 102.988 43.6641C103.48 42.9375 103.727 42.2578 103.727 41.625L106.328 46.4766C105.859 47.4141 105.32 48.3633 104.711 49.3242C104.125 50.2852 103.387 51.1758 102.496 51.9961C101.629 52.793 100.562 53.4492 99.2969 53.9648C98.0312 54.457 96.4961 54.7031 94.6914 54.7031C92.3477 54.7031 90.1914 54.2227 88.2227 53.2617C86.2773 52.3008 84.7188 50.9648 83.5469 49.2539C82.375 47.5195 81.7891 45.5273 81.7891 43.2773C81.7891 41.3086 82.1406 39.5508 82.8438 38.0039C83.5703 36.457 84.6602 35.1445 86.1133 34.0664C87.5664 32.9883 89.418 32.168 91.668 31.6055C93.918 31.043 96.5664 30.7617 99.6133 30.7617H104.711ZM133.398 24.082V54H121.551V15.9609H132.66L133.398 24.082ZM131.992 33.6797L129.215 33.75C129.215 30.8438 129.566 28.2539 130.27 25.9805C130.973 23.6836 131.969 21.7383 133.258 20.1445C134.547 18.5508 136.082 17.3437 137.863 16.5234C139.668 15.6797 141.672 15.2578 143.875 15.2578C145.633 15.2578 147.238 15.5156 148.691 16.0312C150.168 16.5469 151.434 17.3789 152.488 18.5273C153.566 19.6758 154.387 21.1992 154.949 23.0977C155.535 24.9727 155.828 27.293 155.828 30.0586V54H143.91V30.0234C143.91 28.5 143.699 27.3398 143.277 26.543C142.855 25.7227 142.246 25.1602 141.449 24.8555C140.652 24.5508 139.68 24.3984 138.531 24.3984C137.312 24.3984 136.281 24.6328 135.438 25.1016C134.594 25.5703 133.914 26.2266 133.398 27.0703C132.906 27.8906 132.543 28.8633 132.309 29.9883C132.098 31.1133 131.992 32.3438 131.992 33.6797ZM210.004 36.668H222.309C222.145 40.2305 221.184 43.3711 219.426 46.0898C217.668 48.8086 215.23 50.9297 212.113 52.4531C209.02 53.9531 205.363 54.7031 201.145 54.7031C197.723 54.7031 194.664 54.1289 191.969 52.9805C189.297 51.832 187.023 50.1797 185.148 48.0234C183.297 45.8672 181.879 43.2539 180.895 40.1836C179.934 37.1133 179.453 33.6562 179.453 29.8125V27.0352C179.453 23.1914 179.957 19.7344 180.965 16.6641C181.996 13.5703 183.449 10.9453 185.324 8.78906C187.223 6.60938 189.496 4.94531 192.145 3.79688C194.793 2.64844 197.734 2.07422 200.969 2.07422C205.422 2.07422 209.184 2.87109 212.254 4.46484C215.324 6.05859 217.703 8.25 219.391 11.0391C221.078 13.8047 222.074 16.957 222.379 20.4961H210.074C210.027 18.5742 209.699 16.9688 209.09 15.6797C208.48 14.3672 207.52 13.3828 206.207 12.7266C204.895 12.0703 203.148 11.7422 200.969 11.7422C199.445 11.7422 198.121 12.0234 196.996 12.5859C195.871 13.1484 194.934 14.0391 194.184 15.2578C193.434 16.4766 192.871 18.0586 192.496 20.0039C192.145 21.9258 191.969 24.2461 191.969 26.9648V29.8125C191.969 32.5312 192.133 34.8516 192.461 36.7734C192.789 38.6953 193.316 40.2656 194.043 41.4844C194.77 42.7031 195.707 43.6055 196.855 44.1914C198.027 44.7539 199.457 45.0352 201.145 45.0352C203.02 45.0352 204.602 44.7422 205.891 44.1562C207.18 43.5469 208.176 42.6328 208.879 41.4141C209.582 40.1719 209.957 38.5898 210.004 36.668ZM247.34 44.4375V28.7578C247.34 27.6797 247.188 26.7539 246.883 25.9805C246.578 25.207 246.098 24.6094 245.441 24.1875C244.785 23.7422 243.906 23.5195 242.805 23.5195C241.914 23.5195 241.152 23.6719 240.52 23.9766C239.887 24.2812 239.406 24.7383 239.078 25.3477C238.75 25.957 238.586 26.7305 238.586 27.668H226.738C226.738 25.9102 227.125 24.2812 227.898 22.7812C228.695 21.2578 229.82 19.9336 231.273 18.8086C232.75 17.6836 234.508 16.8164 236.547 16.207C238.609 15.5742 240.906 15.2578 243.438 15.2578C246.461 15.2578 249.156 15.7617 251.523 16.7695C253.914 17.7773 255.801 19.2891 257.184 21.3047C258.566 23.2969 259.258 25.8047 259.258 28.8281V44.4023C259.258 46.8867 259.398 48.7734 259.68 50.0625C259.961 51.3281 260.359 52.4414 260.875 53.4023V54H248.992C248.43 52.8281 248.008 51.3984 247.727 49.7109C247.469 48 247.34 46.2422 247.34 44.4375ZM248.781 30.7617L248.852 37.0898H243.613C242.512 37.0898 241.574 37.2422 240.801 37.5469C240.051 37.8516 239.441 38.2734 238.973 38.8125C238.527 39.3281 238.199 39.9141 237.988 40.5703C237.801 41.2266 237.707 41.918 237.707 42.6445C237.707 43.3477 237.871 43.9805 238.199 44.543C238.551 45.082 239.02 45.5039 239.605 45.8086C240.191 46.1133 240.848 46.2656 241.574 46.2656C242.887 46.2656 244 46.0195 244.914 45.5273C245.852 45.0117 246.566 44.3906 247.059 43.6641C247.551 42.9375 247.797 42.2578 247.797 41.625L250.398 46.4766C249.93 47.4141 249.391 48.3633 248.781 49.3242C248.195 50.2852 247.457 51.1758 246.566 51.9961C245.699 52.793 244.633 53.4492 243.367 53.9648C242.102 54.457 240.566 54.7031 238.762 54.7031C236.418 54.7031 234.262 54.2227 232.293 53.2617C230.348 52.3008 228.789 50.9648 227.617 49.2539C226.445 47.5195 225.859 45.5273 225.859 43.2773C225.859 41.3086 226.211 39.5508 226.914 38.0039C227.641 36.457 228.73 35.1445 230.184 34.0664C231.637 32.9883 233.488 32.168 235.738 31.6055C237.988 31.043 240.637 30.7617 243.684 30.7617H248.781ZM277.785 25.3828V54H265.938V15.9609H277.012L277.785 25.3828ZM289.035 15.6797L288.824 26.6836C288.355 26.6367 287.723 26.5781 286.926 26.5078C286.129 26.4375 285.461 26.4023 284.922 26.4023C283.539 26.4023 282.344 26.5664 281.336 26.8945C280.352 27.1992 279.531 27.668 278.875 28.3008C278.242 28.9102 277.773 29.6836 277.469 30.6211C277.188 31.5586 277.059 32.6484 277.082 33.8906L274.938 32.4844C274.938 29.9297 275.184 27.6094 275.676 25.5234C276.191 23.4141 276.918 21.5977 277.855 20.0742C278.793 18.5273 279.93 17.3437 281.266 16.5234C282.602 15.6797 284.102 15.2578 285.766 15.2578C286.352 15.2578 286.926 15.293 287.488 15.3633C288.074 15.4336 288.59 15.5391 289.035 15.6797ZM305.629 0V54H293.746V0H305.629ZM311.465 35.3672V34.6289C311.465 31.8398 311.863 29.2734 312.66 26.9297C313.457 24.5625 314.629 22.5117 316.176 20.7773C317.723 19.043 319.633 17.6953 321.906 16.7344C324.18 15.75 326.805 15.2578 329.781 15.2578C332.781 15.2578 335.418 15.75 337.691 16.7344C339.988 17.6953 341.91 19.043 343.457 20.7773C345.004 22.5117 346.176 24.5625 346.973 26.9297C347.77 29.2734 348.168 31.8398 348.168 34.6289V35.3672C348.168 38.1328 347.77 40.6992 346.973 43.0664C346.176 45.4102 345.004 47.4609 343.457 49.2188C341.91 50.9531 340 52.3008 337.727 53.2617C335.453 54.2227 332.828 54.7031 329.852 54.7031C326.875 54.7031 324.238 54.2227 321.941 53.2617C319.645 52.3008 317.723 50.9531 316.176 49.2188C314.629 47.4609 313.457 45.4102 312.66 43.0664C311.863 40.6992 311.465 38.1328 311.465 35.3672ZM323.312 34.6289V35.3672C323.312 36.7969 323.418 38.1328 323.629 39.375C323.84 40.6172 324.191 41.707 324.684 42.6445C325.176 43.5586 325.844 44.2734 326.688 44.7891C327.531 45.3047 328.586 45.5625 329.852 45.5625C331.094 45.5625 332.125 45.3047 332.945 44.7891C333.789 44.2734 334.457 43.5586 334.949 42.6445C335.441 41.707 335.793 40.6172 336.004 39.375C336.215 38.1328 336.32 36.7969 336.32 35.3672V34.6289C336.32 33.2461 336.215 31.9453 336.004 30.7266C335.793 29.4844 335.441 28.3945 334.949 27.457C334.457 26.4961 333.789 25.7461 332.945 25.207C332.102 24.668 331.047 24.3984 329.781 24.3984C328.539 24.3984 327.496 24.668 326.652 25.207C325.832 25.7461 325.176 26.4961 324.684 27.457C324.191 28.3945 323.84 29.4844 323.629 30.7266C323.418 31.9453 323.312 33.2461 323.312 34.6289ZM373.375 43.3125C373.375 42.6562 373.152 42.0938 372.707 41.625C372.285 41.1328 371.535 40.6875 370.457 40.2891C369.379 39.8672 367.867 39.4453 365.922 39.0234C364.07 38.625 362.324 38.0977 360.684 37.4414C359.066 36.7852 357.648 35.9883 356.43 35.0508C355.211 34.1133 354.25 33 353.547 31.7109C352.867 30.4219 352.527 28.9453 352.527 27.2812C352.527 25.6641 352.867 24.1406 353.547 22.7109C354.25 21.2578 355.27 19.9805 356.605 18.8789C357.965 17.7539 359.617 16.875 361.562 16.2422C363.508 15.5859 365.723 15.2578 368.207 15.2578C371.629 15.2578 374.582 15.7852 377.066 16.8398C379.551 17.8711 381.461 19.3242 382.797 21.1992C384.156 23.0508 384.836 25.1953 384.836 27.6328H372.988C372.988 26.6719 372.824 25.8516 372.496 25.1719C372.191 24.4922 371.688 23.9766 370.984 23.625C370.281 23.25 369.344 23.0625 368.172 23.0625C367.352 23.0625 366.602 23.2148 365.922 23.5195C365.266 23.8242 364.738 24.2461 364.34 24.7852C363.941 25.3242 363.742 25.957 363.742 26.6836C363.742 27.1992 363.859 27.668 364.094 28.0898C364.352 28.4883 364.738 28.8633 365.254 29.2148C365.77 29.543 366.426 29.8477 367.223 30.1289C368.02 30.3867 368.98 30.6211 370.105 30.832C372.66 31.3008 375.051 31.9688 377.277 32.8359C379.504 33.7031 381.309 34.9336 382.691 36.5273C384.098 38.1211 384.801 40.2656 384.801 42.9609C384.801 44.6484 384.414 46.207 383.641 47.6367C382.867 49.043 381.754 50.2852 380.301 51.3633C378.848 52.418 377.102 53.2383 375.062 53.8242C373.023 54.4102 370.727 54.7031 368.172 54.7031C364.539 54.7031 361.469 54.0586 358.961 52.7695C356.453 51.457 354.555 49.8164 353.266 47.8477C352 45.8555 351.367 43.8398 351.367 41.8008H362.406C362.453 42.9727 362.734 43.9336 363.25 44.6836C363.789 45.4336 364.504 45.9844 365.395 46.3359C366.285 46.6875 367.316 46.8633 368.488 46.8633C369.566 46.8633 370.457 46.7109 371.16 46.4062C371.887 46.1016 372.438 45.6914 372.812 45.1758C373.188 44.6367 373.375 44.0156 373.375 43.3125Z" fill="#E1E1E6"/>
<path d="M38.7227 44.5078H39.7227V43.5078H38.7227V44.5078ZM38.7227 54V55H39.7227V54H38.7227ZM12.8477 54H11.8477V55H12.8477V54ZM12.8477 44.5078V43.5078H11.8477V44.5078H12.8477ZM17.2422 2.8125H18.2422V1.8125H17.2422V2.8125ZM17.2422 54V55H18.2422V54H17.2422ZM4.90234 54H3.90234V55H4.90234V54ZM4.90234 2.8125V1.8125H3.90234V2.8125H4.90234ZM37.7227 44.5078V54H39.7227V44.5078H37.7227ZM38.7227 53H12.8477V55H38.7227V53ZM13.8477 54V44.5078H11.8477V54H13.8477ZM12.8477 45.5078H38.7227V43.5078H12.8477V45.5078ZM16.2422 2.8125V54H18.2422V2.8125H16.2422ZM17.2422 53H4.90234V55H17.2422V53ZM5.90234 54V2.8125H3.90234V54H5.90234ZM4.90234 3.8125H17.2422V1.8125H4.90234V3.8125ZM65.0898 44.7539H64.0898V44.7957L64.0933 44.8373L65.0898 44.7539ZM65.0898 15.9609V14.9609H64.0898V15.9609H65.0898ZM76.9727 15.9609H77.9727V14.9609H76.9727V15.9609ZM76.9727 54V55H77.9727V54H76.9727ZM65.8633 54L64.8668 54.0834L64.9434 55H65.8633V54ZM66.2148 37.0195L66.1921 36.0198L65.2148 36.042V37.0195H66.2148ZM69.3086 36.9492H70.3086V35.9262L69.2859 35.9495L69.3086 36.9492ZM68.3945 44.0508L69.3568 44.3227L69.3576 44.32L68.3945 44.0508ZM65.6875 49.6758L64.8875 49.0758L64.8818 49.0834L65.6875 49.6758ZM61.3281 53.4023L61.7802 54.2943L61.7849 54.2919L61.3281 53.4023ZM50.2188 53.9297L49.8897 54.874L49.8982 54.877L49.9068 54.8798L50.2188 53.9297ZM46.2109 51.4336L45.4965 52.1334L45.5038 52.1407L46.2109 51.4336ZM43.5742 47.0391L42.6268 47.359L42.6293 47.3664L42.6319 47.3738L43.5742 47.0391ZM42.6602 15.9609V14.9609H41.6602V15.9609H42.6602ZM54.5078 15.9609H55.5078V14.9609H54.5078V15.9609ZM55.7383 44.3672L55.0113 45.0538L55.0211 45.0642L55.0312 45.0743L55.7383 44.3672ZM57.2148 45.2812L56.8761 46.2221L56.8983 46.2301L56.9208 46.237L57.2148 45.2812ZM65.582 41.3789L64.6316 41.0679L64.6291 41.0757L64.6266 41.0836L65.582 41.3789ZM66.0898 44.7539V15.9609H64.0898V44.7539H66.0898ZM65.0898 16.9609H76.9727V14.9609H65.0898V16.9609ZM75.9727 15.9609V54H77.9727V15.9609H75.9727ZM76.9727 53H65.8633V55H76.9727V53ZM66.8598 53.9166L66.0864 44.6705L64.0933 44.8373L64.8668 54.0834L66.8598 53.9166ZM66.2376 38.0193L69.3313 37.949L69.2859 35.9495L66.1921 36.0198L66.2376 38.0193ZM68.3086 36.9492C68.3086 39.4244 68.0134 41.6999 67.4315 43.7815L69.3576 44.32C69.9944 42.0423 70.3086 39.5834 70.3086 36.9492H68.3086ZM67.4322 43.7788C66.8522 45.8314 66.0004 47.592 64.8875 49.0758L66.4875 50.2758C67.7653 48.5721 68.7182 46.5827 69.3568 44.3227L67.4322 43.7788ZM64.8818 49.0834C63.8003 50.5543 62.4659 51.6939 60.8713 52.5128L61.7849 54.2919C63.6591 53.3295 65.231 51.9848 66.4932 50.2682L64.8818 49.0834ZM60.876 52.5104C59.3275 53.2952 57.5067 53.7031 55.3867 53.7031V55.7031C57.7667 55.7031 59.9068 55.2438 61.7802 54.2943L60.876 52.5104ZM55.3867 53.7031C53.6037 53.7031 51.9878 53.458 50.5307 52.9796L49.9068 54.8798C51.5903 55.4326 53.4198 55.7031 55.3867 55.7031V53.7031ZM50.5478 52.9854C49.1389 52.4944 47.9333 51.7417 46.918 50.7265L45.5038 52.1407C46.7386 53.3754 48.2049 54.2869 49.8897 54.874L50.5478 52.9854ZM46.9253 50.7338C45.9182 49.7057 45.1092 48.3726 44.5165 46.7043L42.6319 47.3738C43.3049 49.268 44.2537 50.8646 45.4966 52.1334L46.9253 50.7338ZM44.5217 46.7191C43.9561 45.0443 43.6602 43.0017 43.6602 40.5703H41.6602C41.6602 43.1545 41.9736 45.4245 42.6268 47.359L44.5217 46.7191ZM43.6602 40.5703V15.9609H41.6602V40.5703H43.6602ZM42.6602 16.9609H54.5078V14.9609H42.6602V16.9609ZM53.5078 15.9609V40.6406H55.5078V15.9609H53.5078ZM53.5078 40.6406C53.5078 41.5633 53.6226 42.406 53.8792 43.1474L55.7692 42.4932C55.604 42.0158 55.5078 41.4054 55.5078 40.6406H53.5078ZM53.8792 43.1474C54.1313 43.8757 54.5052 44.518 55.0113 45.0538L56.4653 43.6806C56.1745 43.3727 55.939 42.9836 55.7692 42.4932L53.8792 43.1474ZM55.0312 45.0743C55.5442 45.5873 56.1664 45.9666 56.8761 46.2221L57.5536 44.3404C57.0914 44.174 56.7292 43.9439 56.4454 43.6601L55.0312 45.0743ZM56.9208 46.237C57.6432 46.4593 58.4364 46.5625 59.2891 46.5625V44.5625C58.5948 44.5625 58.0053 44.4782 57.5089 44.3255L56.9208 46.237ZM59.2891 46.5625C61.1982 46.5625 62.8305 46.1619 64.0697 45.2397L62.8756 43.6353C62.0992 44.2131 60.9424 44.5625 59.2891 44.5625V46.5625ZM64.0697 45.2397C65.2606 44.3535 66.0813 43.1501 66.5374 41.6742L64.6266 41.0836C64.2859 42.1858 63.7004 43.0215 62.8756 43.6353L64.0697 45.2397ZM66.5324 41.6899C66.9928 40.2833 67.2148 38.7227 67.2148 37.0195H65.2148C65.2148 38.5508 65.015 39.8964 64.6316 41.0679L66.5324 41.6899ZM101.371 24.1875L100.81 25.015L100.82 25.022L100.83 25.0287L101.371 24.1875ZM94.5156 27.668V28.668H95.5156V27.668H94.5156ZM82.668 27.668H81.668V28.668H82.668V27.668ZM83.8281 22.7812L82.942 22.3177L82.9393 22.323L83.8281 22.7812ZM87.2031 18.8086L86.5971 18.0131L86.591 18.0179L87.2031 18.8086ZM92.4766 16.207L92.7629 17.1652L92.7699 17.163L92.4766 16.207ZM107.453 16.7695L107.061 17.6896L107.065 17.691L107.453 16.7695ZM113.113 21.3047L112.289 21.8704L112.292 21.8749L113.113 21.3047ZM115.609 50.0625L114.632 50.2757L114.633 50.2794L115.609 50.0625ZM116.805 53.4023H117.805V53.151L117.686 52.9295L116.805 53.4023ZM116.805 54V55H117.805V54H116.805ZM104.922 54L104.02 54.4327L104.293 55H104.922V54ZM103.656 49.7109L102.667 49.8599L102.669 49.8676L102.67 49.8753L103.656 49.7109ZM104.711 30.7617L105.711 30.7506L105.7 29.7617H104.711V30.7617ZM104.781 37.0898V38.0898H105.792L105.781 37.0787L104.781 37.0898ZM96.7305 37.5469L96.3639 36.6164L96.3541 36.6204L96.7305 37.5469ZM94.9023 38.8125L94.1477 38.1563L94.1455 38.1589L94.9023 38.8125ZM93.918 40.5703L92.9659 40.2643L92.9609 40.2799L92.9564 40.2956L93.918 40.5703ZM94.1289 44.543L93.2651 45.0468L93.2777 45.0684L93.2913 45.0892L94.1289 44.543ZM100.844 45.5273L101.318 46.4078L101.326 46.4036L100.844 45.5273ZM103.727 41.625L104.608 41.1524L102.727 41.625H103.727ZM106.328 46.4766L107.223 46.9238L107.454 46.4605L107.209 46.004L106.328 46.4766ZM104.711 49.3242L103.866 48.7887L103.862 48.7961L103.857 48.8036L104.711 49.3242ZM102.496 51.9961L103.173 52.7324L103.174 52.7316L102.496 51.9961ZM99.2969 53.9648L99.6593 54.8968L99.6668 54.894L99.6742 54.8909L99.2969 53.9648ZM88.2227 53.2617L87.7798 54.1583L87.784 54.1604L88.2227 53.2617ZM83.5469 49.2539L82.7183 49.8138L82.7218 49.819L83.5469 49.2539ZM82.8438 38.0039L81.9386 37.5787L81.9334 37.5901L82.8438 38.0039ZM104.27 44.4375V28.7578H102.27V44.4375H104.27ZM104.27 28.7578C104.27 27.5897 104.105 26.5331 103.743 25.6139L101.882 26.347C102.129 26.9747 102.27 27.7697 102.27 28.7578H104.27ZM103.743 25.6139C103.367 24.6589 102.756 23.8893 101.912 23.3463L100.83 25.0287C101.298 25.3295 101.649 25.7552 101.882 26.347L103.743 25.6139ZM101.933 23.36C101.058 22.7663 99.9608 22.5195 98.7344 22.5195V24.5195C99.7111 24.5195 100.372 24.718 100.81 25.015L101.933 23.36ZM98.7344 22.5195C97.7326 22.5195 96.8148 22.6907 96.0154 23.0756L96.883 24.8776C97.3493 24.6531 97.9549 24.5195 98.7344 24.5195V22.5195ZM96.0154 23.0756C95.1954 23.4704 94.5571 24.0754 94.1273 24.8736L95.8883 25.8218C96.1147 25.4012 96.4374 25.0921 96.883 24.8776L96.0154 23.0756ZM94.1273 24.8736C93.6979 25.6711 93.5156 26.6211 93.5156 27.668H95.5156C95.5156 26.8399 95.6615 26.2429 95.8883 25.8218L94.1273 24.8736ZM94.5156 26.668H82.668V28.668H94.5156V26.668ZM83.668 27.668C83.668 26.0628 84.0196 24.5919 84.7169 23.2395L82.9393 22.323C82.0897 23.9706 81.668 25.7576 81.668 27.668H83.668ZM84.7142 23.2447C85.4399 21.8575 86.468 20.6424 87.8153 19.5993L86.591 18.0179C85.032 19.2248 83.8101 20.6582 82.942 22.3178L84.7142 23.2447ZM87.8092 19.604C89.1769 18.562 90.8226 17.745 92.7629 17.1652L92.1902 15.2489C90.0524 15.8878 88.1825 16.8052 86.5971 18.0132L87.8092 19.604ZM92.7699 17.163C94.7225 16.5639 96.9186 16.2578 99.3672 16.2578V14.2578C96.7533 14.2578 94.3556 14.5845 92.1832 15.251L92.7699 17.163ZM99.3672 16.2578C102.279 16.2578 104.838 16.7429 107.061 17.6896L107.845 15.8494C105.334 14.7805 102.502 14.2578 99.3672 14.2578V16.2578ZM107.065 17.691C109.29 18.6292 111.021 20.0225 112.289 21.8704L113.938 20.739C112.44 18.5556 110.397 16.9255 107.842 15.8481L107.065 17.691ZM112.292 21.8749C113.533 23.6624 114.188 25.9579 114.188 28.8281H116.188C116.188 25.6515 115.46 22.9314 113.935 20.7345L112.292 21.8749ZM114.188 28.8281V44.4023H116.188V28.8281H114.188ZM114.188 44.4023C114.188 46.9074 114.328 48.88 114.632 50.2757L116.586 49.8493C116.328 48.6669 116.188 46.8661 116.188 44.4023H114.188ZM114.633 50.2794C114.931 51.618 115.357 52.8202 115.924 53.8752L117.686 52.9295C117.221 52.0626 116.851 51.0382 116.586 49.8456L114.633 50.2794ZM115.805 53.4023V54H117.805V53.4023H115.805ZM116.805 53H104.922V55H116.805V53ZM105.823 53.5673C105.312 52.5023 104.913 51.1686 104.643 49.5465L102.67 49.8753C102.962 51.6283 103.407 53.1539 104.02 54.4327L105.823 53.5673ZM104.645 49.5619C104.395 47.9024 104.27 46.1944 104.27 44.4375H102.27C102.27 46.2899 102.402 48.0976 102.667 49.8599L104.645 49.5619ZM103.711 30.7728L103.781 37.101L105.781 37.0787L105.711 30.7506L103.711 30.7728ZM104.781 36.0898H99.543V38.0898H104.781V36.0898ZM99.543 36.0898C98.3545 36.0898 97.2853 36.2535 96.3639 36.6165L97.097 38.4773C97.7225 38.2309 98.5283 38.0898 99.543 38.0898V36.0898ZM96.3541 36.6204C95.4781 36.9763 94.7326 37.4837 94.1477 38.1563L95.6569 39.4687C96.0096 39.0631 96.4829 38.7268 97.1068 38.4733L96.3541 36.6204ZM94.1455 38.1589C93.6114 38.7773 93.2175 39.4818 92.9659 40.2643L94.87 40.8763C95.0404 40.3463 95.3026 39.8789 95.6592 39.4661L94.1455 38.1589ZM92.9564 40.2956C92.7418 41.0468 92.6367 41.831 92.6367 42.6445H94.6367C94.6367 42.0049 94.7191 41.4064 94.8795 40.845L92.9564 40.2956ZM92.6367 42.6445C92.6367 43.5101 92.8407 44.3193 93.2651 45.0468L94.9927 44.0391C94.7608 43.6417 94.6367 43.1852 94.6367 42.6445H92.6367ZM93.2913 45.0892C93.7394 45.7763 94.3394 46.3139 95.0738 46.6958L95.9965 44.9214C95.5591 44.6939 95.2215 44.3877 94.9665 43.9967L93.2913 45.0892ZM95.0738 46.6958C95.8161 47.0818 96.6331 47.2656 97.5039 47.2656V45.2656C96.9216 45.2656 96.4261 45.1448 95.9965 44.9214L95.0738 46.6958ZM97.5039 47.2656C98.9391 47.2656 100.225 46.9965 101.318 46.4078L100.37 44.6469C99.6348 45.0425 98.6937 45.2656 97.5039 45.2656V47.2656ZM101.326 46.4036C102.372 45.8282 103.218 45.1082 103.816 44.2249L102.16 43.1032C101.774 43.6731 101.191 44.1953 100.362 44.6511L101.326 46.4036ZM103.816 44.2249C104.379 43.3948 104.727 42.5214 104.727 41.625H102.727C102.727 41.9942 102.582 42.4802 102.16 43.1032L103.816 44.2249ZM102.845 42.0976L105.447 46.9491L107.209 46.004L104.608 41.1524L102.845 42.0976ZM105.434 46.0293C104.981 46.9341 104.459 47.8539 103.866 48.7887L105.555 49.8598C106.181 48.8726 106.737 47.894 107.223 46.9238L105.434 46.0293ZM103.857 48.8036C103.323 49.6793 102.646 50.4986 101.819 51.2605L103.174 52.7316C104.128 51.853 104.927 50.8911 105.565 49.8448L103.857 48.8036ZM101.819 51.2598C101.053 51.9643 100.092 52.561 98.9196 53.0388L99.6742 54.8909C101.033 54.3375 102.205 53.6217 103.173 52.7324L101.819 51.2598ZM98.9344 53.0328C97.8155 53.468 96.4106 53.7031 94.6914 53.7031V55.7031C96.5816 55.7031 98.247 55.4461 99.6593 54.8968L98.9344 53.0328ZM94.6914 53.7031C92.4888 53.7031 90.484 53.2527 88.6613 52.3631L87.784 54.1604C89.8988 55.1926 92.2065 55.7031 94.6914 55.7031V53.7031ZM88.6655 52.3651C86.8665 51.4765 85.4424 50.2517 84.3719 48.6888L82.7218 49.819C83.9951 51.678 85.6882 53.1251 87.7798 54.1583L88.6655 52.3651ZM84.3755 48.694C83.3238 47.1376 82.7891 45.3435 82.7891 43.2773H80.7891C80.7891 45.7112 81.4262 47.9015 82.7183 49.8138L84.3755 48.694ZM82.7891 43.2773C82.7891 41.4288 83.1187 39.8156 83.7541 38.4177L81.9334 37.5901C81.1625 39.286 80.7891 41.1884 80.7891 43.2773H82.7891ZM83.7489 38.429C84.401 37.0406 85.3807 35.8551 86.7091 34.8695L85.5174 33.2633C83.9396 34.434 82.7396 35.8735 81.9386 37.5788L83.7489 38.429ZM86.7091 34.8695C88.0314 33.8885 89.7537 33.1148 91.9105 32.5756L91.4254 30.6353C89.0823 31.2211 87.1014 32.0881 85.5174 33.2633L86.7091 34.8695ZM91.9105 32.5756C94.0609 32.038 96.6242 31.7617 99.6133 31.7617V29.7617C96.5086 29.7617 93.775 30.0479 91.4254 30.6353L91.9105 32.5756ZM99.6133 31.7617H104.711V29.7617H99.6133V31.7617ZM133.398 24.082H134.398V24.0367L134.394 23.9915L133.398 24.082ZM133.398 54V55H134.398V54H133.398ZM121.551 54H120.551V55H121.551V54ZM121.551 15.9609V14.9609H120.551V15.9609H121.551ZM132.66 15.9609L133.656 15.8704L133.573 14.9609H132.66V15.9609ZM131.992 33.6797L132.017 34.6794L132.992 34.6547V33.6797H131.992ZM129.215 33.75H128.215V34.7756L129.24 34.7497L129.215 33.75ZM130.27 25.9805L131.225 26.2759L131.226 26.2732L130.27 25.9805ZM137.863 16.5234L138.282 17.4318L138.287 17.4293L137.863 16.5234ZM148.691 16.0312L148.357 16.9737L148.362 16.9753L148.691 16.0312ZM152.488 18.5273L151.752 19.2038L151.759 19.2118L152.488 18.5273ZM154.949 23.0977L153.99 23.3817L153.993 23.3889L153.995 23.3959L154.949 23.0977ZM155.828 54V55H156.828V54H155.828ZM143.91 54H142.91V55H143.91V54ZM143.277 26.543L142.388 27.0003L142.394 27.0109L143.277 26.543ZM133.398 27.0703L132.545 26.5488L132.541 26.5558L133.398 27.0703ZM132.309 29.9883L131.33 29.7843L131.328 29.7941L131.326 29.804L132.309 29.9883ZM132.398 24.082V54H134.398V24.082H132.398ZM133.398 53H121.551V55H133.398V53ZM122.551 54V15.9609H120.551V54H122.551ZM121.551 16.9609H132.66V14.9609H121.551V16.9609ZM131.664 16.0515L132.403 24.1726L134.394 23.9915L133.656 15.8704L131.664 16.0515ZM131.967 32.68L129.19 32.7503L129.24 34.7497L132.017 34.6794L131.967 32.68ZM130.215 33.75C130.215 30.9226 130.557 28.4353 131.225 26.2759L129.314 25.685C128.576 28.0726 128.215 30.7649 128.215 33.75H130.215ZM131.226 26.2732C131.898 24.0781 132.839 22.252 134.035 20.7734L132.48 19.5157C131.098 21.2245 130.048 23.2891 129.313 25.6878L131.226 26.2732ZM134.035 20.7734C135.232 19.2936 136.646 18.1848 138.282 17.4317L137.445 15.6151C135.518 16.5027 133.862 17.808 132.48 19.5157L134.035 20.7734ZM138.287 17.4293C139.945 16.6539 141.803 16.2578 143.875 16.2578V14.2578C141.541 14.2578 139.391 14.7055 137.44 15.6176L138.287 17.4293ZM143.875 16.2578C145.535 16.2578 147.025 16.5011 148.357 16.9737L149.026 15.0888C147.451 14.5302 145.731 14.2578 143.875 14.2578V16.2578ZM148.362 16.9753C149.683 17.4368 150.809 18.1771 151.752 19.2037L153.225 17.8509C152.058 16.5807 150.653 15.6569 149.021 15.0872L148.362 16.9753ZM151.759 19.2118C152.707 20.2211 153.461 21.5954 153.99 23.3817L155.908 22.8136C155.312 20.8031 154.426 19.1305 153.217 17.8429L151.759 19.2118ZM153.995 23.3959C154.541 25.1439 154.828 27.3563 154.828 30.0586H156.828C156.828 27.2296 156.529 24.8014 155.904 22.7994L153.995 23.3959ZM154.828 30.0586V54H156.828V30.0586H154.828ZM155.828 53H143.91V55H155.828V53ZM144.91 54V30.0234H142.91V54H144.91ZM144.91 30.0234C144.91 28.4354 144.695 27.0834 144.161 26.0751L142.394 27.0109C142.703 27.5963 142.91 28.5646 142.91 30.0234H144.91ZM144.167 26.0856C143.642 25.0656 142.853 24.3215 141.806 23.9214L141.092 25.7895C141.639 25.9988 142.069 26.3797 142.388 27.0003L144.167 26.0856ZM141.806 23.9214C140.864 23.5609 139.762 23.3984 138.531 23.3984V25.3984C139.597 25.3984 140.441 25.5406 141.092 25.7895L141.806 23.9214ZM138.531 23.3984C137.186 23.3984 135.978 23.6572 134.952 24.2274L135.923 25.9757C136.584 25.6084 137.439 25.3984 138.531 25.3984V23.3984ZM134.952 24.2274C133.953 24.7821 133.149 25.5615 132.545 26.5489L134.252 27.5918C134.68 26.8916 135.234 26.3585 135.923 25.9757L134.952 24.2274ZM132.541 26.5558C131.981 27.4892 131.582 28.5711 131.33 29.7843L133.288 30.1922C133.504 29.1554 133.832 28.292 134.256 27.5848L132.541 26.5558ZM131.326 29.804C131.102 30.9988 130.992 32.2919 130.992 33.6797H132.992C132.992 32.3956 133.094 31.2277 133.291 30.1726L131.326 29.804ZM210.004 36.668V35.668H209.028L209.004 36.6436L210.004 36.668ZM222.309 36.668L223.308 36.714L223.356 35.668H222.309V36.668ZM212.113 52.4531L212.55 53.3529L212.552 53.3516L212.113 52.4531ZM191.969 52.9805L191.574 53.8992L191.577 53.9004L191.969 52.9805ZM185.148 48.0234L184.39 48.6749L184.394 48.6796L185.148 48.0234ZM180.895 40.1836L179.94 40.4823L179.942 40.4889L180.895 40.1836ZM180.965 16.6641L180.016 16.3478L180.015 16.3522L180.965 16.6641ZM185.324 8.78906L184.57 8.13228L184.57 8.13288L185.324 8.78906ZM219.391 11.0391L218.535 11.5567L218.537 11.5599L219.391 11.0391ZM222.379 20.4961V21.4961H223.469L223.375 20.4103L222.379 20.4961ZM210.074 20.4961L209.075 20.5205L209.098 21.4961H210.074V20.4961ZM209.09 15.6797L208.183 16.1008L208.186 16.1071L209.09 15.6797ZM192.496 20.0039L191.514 19.8146L191.512 19.824L192.496 20.0039ZM196.855 44.1914L196.401 45.0822L196.412 45.0877L196.423 45.0929L196.855 44.1914ZM205.891 44.1562L206.304 45.0666L206.311 45.0635L206.318 45.0603L205.891 44.1562ZM208.879 41.4141L209.745 41.9138L209.749 41.9067L208.879 41.4141ZM210.004 37.668H222.309V35.668H210.004V37.668ZM221.31 36.622C221.153 40.0261 220.238 42.9916 218.586 45.5469L220.266 46.6328C222.129 43.7506 223.136 40.4348 223.308 36.714L221.31 36.622ZM218.586 45.5469C216.934 48.1019 214.64 50.1052 211.674 51.5547L212.552 53.3516C215.821 51.7542 218.402 49.5153 220.266 46.6328L218.586 45.5469ZM211.677 51.5533C208.747 52.9741 205.246 53.7031 201.145 53.7031V55.7031C205.481 55.7031 209.292 54.9321 212.55 53.3529L211.677 51.5533ZM201.145 53.7031C197.835 53.7031 194.913 53.148 192.361 52.0605L191.577 53.9004C194.415 55.1098 197.61 55.7031 201.145 55.7031V53.7031ZM192.364 52.0617C189.827 50.9716 187.678 49.408 185.903 47.3673L184.394 48.6796C186.369 50.9514 188.766 52.6925 191.574 53.8992L192.364 52.0617ZM185.907 47.372C184.153 45.3298 182.796 42.8385 181.847 39.8783L179.942 40.4889C180.962 43.6693 182.44 46.4046 184.39 48.6749L185.907 47.372ZM181.849 39.8849C180.923 36.9279 180.453 33.5741 180.453 29.8125H178.453C178.453 33.7384 178.944 37.2986 179.94 40.4823L181.849 39.8849ZM180.453 29.8125V27.0352H178.453V29.8125H180.453ZM180.453 27.0352C180.453 23.2779 180.946 19.9286 181.915 16.9759L180.015 16.3522C178.968 19.5401 178.453 23.105 178.453 27.0352H180.453ZM181.914 16.9803C182.909 13.994 184.302 11.489 186.079 9.44524L184.57 8.13288C182.597 10.4016 181.083 13.1466 180.016 16.3478L181.914 16.9803ZM186.078 9.44584C187.879 7.37835 190.031 5.80342 192.542 4.71433L191.747 2.87942C188.961 4.08721 186.566 5.8404 184.57 8.13228L186.078 9.44584ZM192.542 4.71433C195.051 3.62655 197.855 3.07422 200.969 3.07422V1.07422C197.614 1.07422 194.535 1.67033 191.747 2.87942L192.542 4.71433ZM200.969 3.07422C205.306 3.07422 208.9 3.85068 211.793 5.35239L212.715 3.57729C209.467 1.8915 205.538 1.07422 200.969 1.07422V3.07422ZM211.793 5.35239C214.711 6.86688 216.949 8.93464 218.535 11.5567L220.246 10.5214C218.458 7.56536 215.938 5.25031 212.715 3.57729L211.793 5.35239ZM218.537 11.5599C220.136 14.1812 221.09 17.1818 221.383 20.5819L223.375 20.4103C223.059 16.7322 222.02 13.4282 220.244 10.5182L218.537 11.5599ZM222.379 19.4961H210.074V21.4961H222.379V19.4961ZM211.074 20.4717C211.025 18.4562 210.68 16.7034 209.994 15.2523L208.186 16.1071C208.719 17.2341 209.03 18.6922 209.075 20.5205L211.074 20.4717ZM209.997 15.2586C209.291 13.7377 208.166 12.588 206.654 11.8321L205.76 13.621C206.873 14.1776 207.67 14.9967 208.183 16.1008L209.997 15.2586ZM206.654 11.8321C205.152 11.081 203.234 10.7422 200.969 10.7422V12.7422C203.062 12.7422 204.637 13.0596 205.76 13.621L206.654 11.8321ZM200.969 10.7422C199.322 10.7422 197.839 11.0464 196.549 11.6915L197.443 13.4804C198.403 13.0004 199.568 12.7422 200.969 12.7422V10.7422ZM196.549 11.6915C195.235 12.3484 194.166 13.3786 193.332 14.7337L195.035 15.7819C195.701 14.6995 196.507 13.9485 197.443 13.4804L196.549 11.6915ZM193.332 14.7337C192.499 16.0865 191.904 17.7931 191.514 19.8146L193.478 20.1932C193.838 18.3241 194.368 16.8666 195.035 15.7819L193.332 14.7337ZM191.512 19.824C191.147 21.8232 190.969 24.2073 190.969 26.9648H192.969C192.969 24.2849 193.142 22.0284 193.48 20.1838L191.512 19.824ZM190.969 26.9648V29.8125H192.969V26.9648H190.969ZM190.969 29.8125C190.969 32.5674 191.135 34.9474 191.475 36.9417L193.447 36.6051C193.131 34.7558 192.969 32.4951 192.969 29.8125H190.969ZM191.475 36.9417C191.817 38.9427 192.376 40.6404 193.184 41.9964L194.902 40.9723C194.257 39.8909 193.761 38.4479 193.447 36.6051L191.475 36.9417ZM193.184 41.9964C193.997 43.3602 195.068 44.4021 196.401 45.0822L197.31 43.3006C196.346 42.8088 195.542 42.0461 194.902 40.9723L193.184 41.9964ZM196.423 45.0929C197.764 45.7366 199.35 46.0352 201.145 46.0352V44.0352C199.564 44.0352 198.291 43.7712 197.288 43.2899L196.423 45.0929ZM201.145 46.0352C203.118 46.0352 204.851 45.7275 206.304 45.0666L205.477 43.2459C204.353 43.7569 202.921 44.0352 201.145 44.0352V46.0352ZM206.318 45.0603C207.788 44.3652 208.939 43.3113 209.745 41.9138L208.013 40.9143C207.413 41.9543 206.571 42.7285 205.463 43.2522L206.318 45.0603ZM209.749 41.9067C210.556 40.4804 210.954 38.724 211.004 36.6924L209.004 36.6436C208.96 38.4557 208.608 39.8633 208.009 40.9215L209.749 41.9067ZM245.441 24.1875L244.88 25.015L244.89 25.022L244.901 25.0287L245.441 24.1875ZM238.586 27.668V28.668H239.586V27.668H238.586ZM226.738 27.668H225.738V28.668H226.738V27.668ZM227.898 22.7812L227.012 22.3177L227.01 22.323L227.898 22.7812ZM231.273 18.8086L230.667 18.0131L230.661 18.0179L231.273 18.8086ZM236.547 16.207L236.833 17.1652L236.84 17.163L236.547 16.207ZM251.523 16.7695L251.132 17.6896L251.135 17.691L251.523 16.7695ZM257.184 21.3047L256.359 21.8704L256.362 21.8749L257.184 21.3047ZM259.68 50.0625L258.703 50.2757L258.704 50.2794L259.68 50.0625ZM260.875 53.4023H261.875V53.151L261.756 52.9295L260.875 53.4023ZM260.875 54V55H261.875V54H260.875ZM248.992 54L248.091 54.4327L248.363 55H248.992V54ZM247.727 49.7109L246.738 49.8599L246.739 49.8676L246.74 49.8753L247.727 49.7109ZM248.781 30.7617L249.781 30.7506L249.77 29.7617H248.781V30.7617ZM248.852 37.0898V38.0898H249.863L249.852 37.0787L248.852 37.0898ZM240.801 37.5469L240.434 36.6164L240.424 36.6204L240.801 37.5469ZM238.973 38.8125L238.218 38.1563L238.216 38.1589L238.973 38.8125ZM237.988 40.5703L237.036 40.2643L237.031 40.2799L237.027 40.2956L237.988 40.5703ZM238.199 44.543L237.335 45.0468L237.348 45.0684L237.362 45.0892L238.199 44.543ZM244.914 45.5273L245.388 46.4078L245.396 46.4036L244.914 45.5273ZM247.797 41.625L248.678 41.1524L246.797 41.625H247.797ZM250.398 46.4766L251.293 46.9238L251.525 46.4605L251.28 46.004L250.398 46.4766ZM248.781 49.3242L247.937 48.7887L247.932 48.7961L247.927 48.8036L248.781 49.3242ZM246.566 51.9961L247.243 52.7324L247.244 52.7316L246.566 51.9961ZM243.367 53.9648L243.73 54.8968L243.737 54.894L243.744 54.8909L243.367 53.9648ZM232.293 53.2617L231.85 54.1583L231.854 54.1604L232.293 53.2617ZM227.617 49.2539L226.789 49.8138L226.792 49.819L227.617 49.2539ZM226.914 38.0039L226.009 37.5787L226.004 37.5901L226.914 38.0039ZM248.34 44.4375V28.7578H246.34V44.4375H248.34ZM248.34 28.7578C248.34 27.5897 248.175 26.5331 247.813 25.6139L245.952 26.347C246.2 26.9747 246.34 27.7697 246.34 28.7578H248.34ZM247.813 25.6139C247.437 24.6589 246.827 23.8893 245.982 23.3463L244.901 25.0287C245.369 25.3295 245.719 25.7552 245.952 26.347L247.813 25.6139ZM246.003 23.36C245.128 22.7663 244.031 22.5195 242.805 22.5195V24.5195C243.781 24.5195 244.442 24.718 244.88 25.015L246.003 23.36ZM242.805 22.5195C241.803 22.5195 240.885 22.6907 240.086 23.0756L240.953 24.8776C241.42 24.6531 242.025 24.5195 242.805 24.5195V22.5195ZM240.086 23.0756C239.266 23.4704 238.627 24.0754 238.198 24.8736L239.959 25.8218C240.185 25.4012 240.508 25.0921 240.953 24.8776L240.086 23.0756ZM238.198 24.8736C237.768 25.6711 237.586 26.6211 237.586 27.668H239.586C239.586 26.8399 239.732 26.2429 239.959 25.8218L238.198 24.8736ZM238.586 26.668H226.738V28.668H238.586V26.668ZM227.738 27.668C227.738 26.0628 228.09 24.5919 228.787 23.2395L227.01 22.323C226.16 23.9706 225.738 25.7576 225.738 27.668H227.738ZM228.785 23.2447C229.51 21.8575 230.538 20.6424 231.886 19.5993L230.661 18.0179C229.102 19.2248 227.88 20.6582 227.012 22.3178L228.785 23.2447ZM231.879 19.604C233.247 18.562 234.893 17.745 236.833 17.1652L236.261 15.2489C234.123 15.8878 232.253 16.8052 230.667 18.0132L231.879 19.604ZM236.84 17.163C238.793 16.5639 240.989 16.2578 243.438 16.2578V14.2578C240.824 14.2578 238.426 14.5845 236.254 15.251L236.84 17.163ZM243.438 16.2578C246.35 16.2578 248.908 16.7429 251.132 17.6896L251.915 15.8494C249.404 14.7805 246.572 14.2578 243.438 14.2578V16.2578ZM251.135 17.691C253.361 18.6292 255.091 20.0225 256.359 21.8704L258.008 20.739C256.51 18.5556 254.468 16.9255 251.912 15.8481L251.135 17.691ZM256.362 21.8749C257.603 23.6624 258.258 25.9579 258.258 28.8281H260.258C260.258 25.6515 259.53 22.9314 258.005 20.7345L256.362 21.8749ZM258.258 28.8281V44.4023H260.258V28.8281H258.258ZM258.258 44.4023C258.258 46.9074 258.398 48.88 258.703 50.2757L260.657 49.8493C260.399 48.6669 260.258 46.8661 260.258 44.4023H258.258ZM258.704 50.2794C259.001 51.618 259.428 52.8202 259.994 53.8752L261.756 52.9295C261.291 52.0626 260.921 51.0382 260.656 49.8456L258.704 50.2794ZM259.875 53.4023V54H261.875V53.4023H259.875ZM260.875 53H248.992V55H260.875V53ZM249.894 53.5673C249.383 52.5023 248.983 51.1686 248.713 49.5465L246.74 49.8753C247.032 51.6283 247.477 53.1539 248.091 54.4327L249.894 53.5673ZM248.715 49.5619C248.465 47.9024 248.34 46.1944 248.34 44.4375H246.34C246.34 46.2899 246.472 48.0976 246.738 49.8599L248.715 49.5619ZM247.781 30.7728L247.852 37.101L249.852 37.0787L249.781 30.7506L247.781 30.7728ZM248.852 36.0898H243.613V38.0898H248.852V36.0898ZM243.613 36.0898C242.425 36.0898 241.356 36.2535 240.434 36.6165L241.167 38.4773C241.793 38.2309 242.599 38.0898 243.613 38.0898V36.0898ZM240.424 36.6204C239.548 36.9763 238.803 37.4837 238.218 38.1563L239.727 39.4687C240.08 39.0631 240.553 38.7268 241.177 38.4733L240.424 36.6204ZM238.216 38.1589C237.682 38.7773 237.288 39.4818 237.036 40.2643L238.94 40.8763C239.111 40.3463 239.373 39.8789 239.729 39.4661L238.216 38.1589ZM237.027 40.2956C236.812 41.0468 236.707 41.831 236.707 42.6445H238.707C238.707 42.0049 238.789 41.4064 238.95 40.845L237.027 40.2956ZM236.707 42.6445C236.707 43.5101 236.911 44.3193 237.335 45.0468L239.063 44.0391C238.831 43.6417 238.707 43.1852 238.707 42.6445H236.707ZM237.362 45.0892C237.81 45.7763 238.41 46.3139 239.144 46.6958L240.067 44.9214C239.629 44.6939 239.292 44.3877 239.037 43.9967L237.362 45.0892ZM239.144 46.6958C239.886 47.0818 240.703 47.2656 241.574 47.2656V45.2656C240.992 45.2656 240.496 45.1448 240.067 44.9214L239.144 46.6958ZM241.574 47.2656C243.009 47.2656 244.295 46.9965 245.388 46.4078L244.44 44.6469C243.705 45.0425 242.764 45.2656 241.574 45.2656V47.2656ZM245.396 46.4036C246.442 45.8282 247.288 45.1082 247.887 44.2249L246.231 43.1032C245.845 43.6731 245.261 44.1953 244.432 44.6511L245.396 46.4036ZM247.887 44.2249C248.449 43.3948 248.797 42.5214 248.797 41.625H246.797C246.797 41.9942 246.653 42.4802 246.231 43.1032L247.887 44.2249ZM246.916 42.0976L249.517 46.9491L251.28 46.004L248.678 41.1524L246.916 42.0976ZM249.504 46.0293C249.052 46.9341 248.53 47.8539 247.937 48.7887L249.626 49.8598C250.252 48.8726 250.808 47.894 251.293 46.9238L249.504 46.0293ZM247.927 48.8036C247.394 49.6793 246.716 50.4986 245.889 51.2605L247.244 52.7316C248.198 51.853 248.997 50.8911 249.635 49.8448L247.927 48.8036ZM245.89 51.2598C245.123 51.9643 244.163 52.561 242.99 53.0388L243.744 54.8909C245.103 54.3375 246.275 53.6217 247.243 52.7324L245.89 51.2598ZM243.005 53.0328C241.886 53.468 240.481 53.7031 238.762 53.7031V55.7031C240.652 55.7031 242.317 55.4461 243.73 54.8968L243.005 53.0328ZM238.762 53.7031C236.559 53.7031 234.554 53.2527 232.732 52.3631L231.854 54.1604C233.969 55.1926 236.277 55.7031 238.762 55.7031V53.7031ZM232.736 52.3651C230.937 51.4765 229.513 50.2517 228.442 48.6888L226.792 49.819C228.065 51.678 229.758 53.1251 231.85 54.1583L232.736 52.3651ZM228.446 48.694C227.394 47.1376 226.859 45.3435 226.859 43.2773H224.859C224.859 45.7112 225.497 47.9015 226.789 49.8138L228.446 48.694ZM226.859 43.2773C226.859 41.4288 227.189 39.8156 227.824 38.4177L226.004 37.5901C225.233 39.286 224.859 41.1884 224.859 43.2773H226.859ZM227.819 38.429C228.471 37.0406 229.451 35.8551 230.779 34.8695L229.588 33.2633C228.01 34.434 226.81 35.8735 226.009 37.5788L227.819 38.429ZM230.779 34.8695C232.102 33.8885 233.824 33.1148 235.981 32.5756L235.496 30.6353C233.153 31.2211 231.172 32.0881 229.588 33.2633L230.779 34.8695ZM235.981 32.5756C238.131 32.038 240.695 31.7617 243.684 31.7617V29.7617C240.579 29.7617 237.845 30.0479 235.496 30.6353L235.981 32.5756ZM243.684 31.7617H248.781V29.7617H243.684V31.7617ZM277.785 25.3828H278.785V25.3418L278.782 25.301L277.785 25.3828ZM277.785 54V55H278.785V54H277.785ZM265.938 54H264.938V55H265.938V54ZM265.938 15.9609V14.9609H264.938V15.9609H265.938ZM277.012 15.9609L278.008 15.8791L277.933 14.9609H277.012V15.9609ZM289.035 15.6797L290.035 15.6989L290.049 14.9513L289.336 14.7261L289.035 15.6797ZM288.824 26.6836L288.725 27.6786L289.803 27.7865L289.824 26.7028L288.824 26.6836ZM281.336 26.8945L281.632 27.8498L281.639 27.8477L281.646 27.8454L281.336 26.8945ZM278.875 28.3008L279.569 29.0211L279.569 29.0206L278.875 28.3008ZM277.469 30.6211L276.518 30.312L276.514 30.3228L276.511 30.3337L277.469 30.6211ZM277.082 33.8906L276.534 34.7269L278.118 35.7655L278.082 33.8718L277.082 33.8906ZM274.938 32.4844H273.938V33.0245L274.389 33.3206L274.938 32.4844ZM275.676 25.5234L274.704 25.286L274.703 25.2938L275.676 25.5234ZM277.855 20.0742L278.707 20.5983L278.711 20.5925L277.855 20.0742ZM281.266 16.5234L281.789 17.3757L281.8 17.3689L281.266 16.5234ZM287.488 15.3633L287.364 16.3556L287.369 16.3562L287.488 15.3633ZM276.785 25.3828V54H278.785V25.3828H276.785ZM277.785 53H265.938V55H277.785V53ZM266.938 54V15.9609H264.938V54H266.938ZM265.938 16.9609H277.012V14.9609H265.938V16.9609ZM276.015 16.0428L276.789 25.4646L278.782 25.301L278.008 15.8791L276.015 16.0428ZM288.035 15.6605L287.824 26.6644L289.824 26.7028L290.035 15.6989L288.035 15.6605ZM288.924 25.6886C288.449 25.6411 287.812 25.5821 287.014 25.5117L286.838 27.5039C287.633 27.5741 288.262 27.6323 288.725 27.6786L288.924 25.6886ZM287.014 25.5117C286.2 25.4399 285.501 25.4023 284.922 25.4023V27.4023C285.421 27.4023 286.058 27.4351 286.838 27.5039L287.014 25.5117ZM284.922 25.4023C283.464 25.4023 282.159 25.5748 281.026 25.9437L281.646 27.8454C282.528 27.558 283.614 27.4023 284.922 27.4023V25.4023ZM281.04 25.9392C279.926 26.2841 278.964 26.8261 278.181 27.5809L279.569 29.0206C280.099 28.5098 280.777 28.1143 281.632 27.8498L281.04 25.9392ZM278.181 27.5805C277.416 28.317 276.867 29.2377 276.518 30.312L278.42 30.9302C278.68 30.1295 279.068 29.5033 279.569 29.0211L278.181 27.5805ZM276.511 30.3337C276.193 31.3931 276.057 32.5902 276.082 33.9095L278.082 33.8718C278.06 32.7067 278.182 31.7241 278.427 30.9084L276.511 30.3337ZM277.63 33.0544L275.486 31.6481L274.389 33.3206L276.534 34.7269L277.63 33.0544ZM275.938 32.4844C275.938 29.9927 276.178 27.751 276.649 25.7531L274.703 25.2938C274.19 27.4677 273.938 29.8666 273.938 32.4844H275.938ZM276.647 25.7609C277.143 23.7318 277.834 22.0164 278.707 20.5983L277.004 19.5501C276.001 21.1789 275.24 23.0963 274.704 25.286L276.647 25.7609ZM278.711 20.5925C279.578 19.1608 280.608 18.1007 281.789 17.3756L280.742 15.6713C279.251 16.5868 278.008 17.8939 277 19.5559L278.711 20.5925ZM281.8 17.3689C282.967 16.6316 284.28 16.2578 285.766 16.2578V14.2578C283.923 14.2578 282.236 14.7278 280.732 15.6779L281.8 17.3689ZM285.766 16.2578C286.311 16.2578 286.844 16.2906 287.364 16.3556L287.612 14.371C287.007 14.2954 286.392 14.2578 285.766 14.2578V16.2578ZM287.369 16.3562C287.909 16.4209 288.361 16.5155 288.734 16.6333L289.336 14.7261C288.819 14.5626 288.24 14.4463 287.607 14.3704L287.369 16.3562ZM305.629 0H306.629V-1H305.629V0ZM305.629 54V55H306.629V54H305.629ZM293.746 54H292.746V55H293.746V54ZM293.746 0V-1H292.746V0H293.746ZM304.629 0V54H306.629V0H304.629ZM305.629 53H293.746V55H305.629V53ZM294.746 54V0H292.746V54H294.746ZM293.746 1H305.629V-1H293.746V1ZM312.66 26.9297L313.607 27.2516L313.608 27.2487L312.66 26.9297ZM321.906 16.7344L322.296 17.6555L322.304 17.652L321.906 16.7344ZM337.691 16.7344L337.294 17.6521L337.305 17.6569L337.691 16.7344ZM346.973 26.9297L346.025 27.2487L346.026 27.2516L346.973 26.9297ZM346.973 43.0664L347.919 43.3883L347.92 43.3854L346.973 43.0664ZM343.457 49.2188L344.203 49.8844L344.208 49.8794L343.457 49.2188ZM321.941 53.2617L322.327 52.3392L321.941 53.2617ZM316.176 49.2188L315.425 49.8794L315.429 49.8844L316.176 49.2188ZM312.66 43.0664L311.712 43.3854L311.713 43.3883L312.66 43.0664ZM324.684 42.6445L323.798 43.1094L323.803 43.1186L324.684 42.6445ZM332.945 44.7891L332.424 43.9357L332.413 43.9424L332.945 44.7891ZM334.949 42.6445L335.83 43.1187L335.835 43.1094L334.949 42.6445ZM336.004 30.7266L335.018 30.894L335.019 30.8971L336.004 30.7266ZM334.949 27.457L334.059 27.9129L334.064 27.9219L334.949 27.457ZM326.652 25.207L326.114 24.3643L326.103 24.3713L326.652 25.207ZM324.684 27.457L325.569 27.9219L325.574 27.9129L324.684 27.457ZM323.629 30.7266L324.614 30.8971L324.615 30.894L323.629 30.7266ZM312.465 35.3672V34.6289H310.465V35.3672H312.465ZM312.465 34.6289C312.465 31.9356 312.849 29.4795 313.607 27.2516L311.713 26.6078C310.877 29.0674 310.465 31.7441 310.465 34.6289H312.465ZM313.608 27.2487C314.365 24.9998 315.472 23.0692 316.922 21.443L315.429 20.1117C313.786 21.9542 312.549 24.1252 311.712 26.6106L313.608 27.2487ZM316.922 21.443C318.364 19.8259 320.15 18.5624 322.296 17.6555L321.517 15.8133C319.116 16.8282 317.081 18.26 315.429 20.1117L316.922 21.443ZM322.304 17.652C324.429 16.7318 326.914 16.2578 329.781 16.2578V14.2578C326.695 14.2578 323.93 14.7682 321.509 15.8167L322.304 17.652ZM329.781 16.2578C332.673 16.2578 335.17 16.7322 337.294 17.652L338.089 15.8167C335.666 14.7678 332.89 14.2578 329.781 14.2578V16.2578ZM337.305 17.6569C339.475 18.5644 341.27 19.8279 342.711 21.443L344.203 20.1117C342.55 18.258 340.502 16.8262 338.077 15.8119L337.305 17.6569ZM342.711 21.443C344.161 23.0692 345.268 24.9998 346.025 27.2487L347.92 26.6106C347.084 24.1252 345.847 21.9542 344.203 20.1117L342.711 21.443ZM346.026 27.2516C346.783 29.4795 347.168 31.9356 347.168 34.6289H349.168C349.168 31.7441 348.756 29.0674 347.919 26.6078L346.026 27.2516ZM347.168 34.6289V35.3672H349.168V34.6289H347.168ZM347.168 35.3672C347.168 38.0359 346.784 40.4934 346.025 42.7474L347.92 43.3854C348.755 40.905 349.168 38.2297 349.168 35.3672H347.168ZM346.026 42.7445C345.269 44.9708 344.161 46.9048 342.706 48.5581L344.208 49.8794C345.847 48.0171 347.083 45.8495 347.919 43.3883L346.026 42.7445ZM342.711 48.5531C341.269 50.1702 339.483 51.4337 337.337 52.3406L338.116 54.1828C340.517 53.1679 342.552 51.7361 344.203 49.8844L342.711 48.5531ZM337.337 52.3406C335.21 53.2399 332.721 53.7031 329.852 53.7031V55.7031C332.935 55.7031 335.697 55.2054 338.116 54.1828L337.337 52.3406ZM329.852 53.7031C326.982 53.7031 324.481 53.24 322.327 52.3392L321.555 54.1842C323.996 55.2053 326.768 55.7031 329.852 55.7031V53.7031ZM322.327 52.3392C320.158 51.4317 318.363 50.1682 316.922 48.5531L315.429 49.8844C317.083 51.738 319.131 53.1698 321.555 54.1842L322.327 52.3392ZM316.926 48.5581C315.472 46.9048 314.364 44.9708 313.607 42.7445L311.713 43.3883C312.55 45.8495 313.786 48.0171 315.425 49.8794L316.926 48.5581ZM313.608 42.7474C312.849 40.4934 312.465 38.0359 312.465 35.3672H310.465C310.465 38.2297 310.877 40.905 311.712 43.3854L313.608 42.7474ZM322.312 34.6289V35.3672H324.312V34.6289H322.312ZM322.312 35.3672C322.312 36.8456 322.422 38.2381 322.643 39.5424L324.615 39.2076C324.414 38.0275 324.312 36.7481 324.312 35.3672H322.312ZM322.643 39.5424C322.868 40.8693 323.249 42.0629 323.798 43.1094L325.569 42.1797C325.134 41.3512 324.811 40.3651 324.615 39.2076L322.643 39.5424ZM323.803 43.1186C324.375 44.1806 325.163 45.0297 326.166 45.6423L327.209 43.9358C326.524 43.5172 325.977 42.9366 325.564 42.1704L323.803 43.1186ZM326.166 45.6423C327.205 46.2773 328.453 46.5625 329.852 46.5625V44.5625C328.719 44.5625 327.857 44.3321 327.209 43.9358L326.166 45.6423ZM329.852 46.5625C331.23 46.5625 332.459 46.2762 333.477 45.6357L332.413 43.9424C331.791 44.3332 330.958 44.5625 329.852 44.5625V46.5625ZM333.467 45.6423C334.469 45.0297 335.258 44.1806 335.83 43.1186L334.069 42.1704C333.656 42.9366 333.109 43.5172 332.424 43.9358L333.467 45.6423ZM335.835 43.1094C336.384 42.0629 336.764 40.8693 336.99 39.5424L335.018 39.2076C334.821 40.3651 334.499 41.3512 334.064 42.1797L335.835 43.1094ZM336.99 39.5424C337.211 38.2381 337.32 36.8456 337.32 35.3672H335.32C335.32 36.7481 335.218 38.0275 335.018 39.2076L336.99 39.5424ZM337.32 35.3672V34.6289H335.32V35.3672H337.32ZM337.32 34.6289C337.32 33.1955 337.211 31.8372 336.989 30.556L335.019 30.8971C335.219 32.0534 335.32 33.2967 335.32 34.6289H337.32ZM336.99 30.5591C336.764 29.2323 336.384 28.0387 335.835 26.9922L334.064 27.9219C334.499 28.7504 334.821 29.7365 335.018 30.894L336.99 30.5591ZM335.839 27.0012C335.273 25.8952 334.489 25.0063 333.484 24.3643L332.407 26.0497C333.09 26.4859 333.641 27.097 334.059 27.9129L335.839 27.0012ZM333.484 24.3643C332.442 23.6986 331.188 23.3984 329.781 23.3984V25.3984C330.906 25.3984 331.761 25.6374 332.407 26.0497L333.484 24.3643ZM329.781 23.3984C328.394 23.3984 327.153 23.7004 326.114 24.3643L327.191 26.0497C327.839 25.6356 328.684 25.3984 329.781 25.3984V23.3984ZM326.103 24.3713C325.124 25.0147 324.357 25.902 323.794 27.0012L325.574 27.9129C325.995 27.0902 326.54 26.4775 327.202 26.0427L326.103 24.3713ZM323.798 26.9922C323.249 28.0387 322.868 29.2323 322.643 30.5591L324.615 30.894C324.811 29.7365 325.134 28.7504 325.569 27.9219L323.798 26.9922ZM322.644 30.556C322.422 31.8372 322.312 33.1955 322.312 34.6289H324.312C324.312 33.2967 324.414 32.0534 324.614 30.8971L322.644 30.556ZM372.707 41.625L371.948 42.2758L371.964 42.2952L371.982 42.3137L372.707 41.625ZM370.457 40.2891L370.093 41.2203L370.101 41.2238L370.11 41.2271L370.457 40.2891ZM365.922 39.0234L366.134 38.0462L366.132 38.0458L365.922 39.0234ZM360.684 37.4414L360.308 38.368L360.312 38.3699L360.684 37.4414ZM353.547 31.7109L352.662 32.1774L352.669 32.1898L353.547 31.7109ZM353.547 22.7109L352.647 22.2754L352.644 22.2816L353.547 22.7109ZM356.605 18.8789L357.242 19.6504L357.243 19.6493L356.605 18.8789ZM361.562 16.2422L361.872 17.1932L361.882 17.1897L361.562 16.2422ZM377.066 16.8398L376.676 17.7604L376.683 17.7634L377.066 16.8398ZM382.797 21.1992L381.982 21.7795L381.987 21.7853L381.991 21.791L382.797 21.1992ZM384.836 27.6328V28.6328H385.836V27.6328H384.836ZM372.988 27.6328H371.988V28.6328H372.988V27.6328ZM372.496 25.1719L371.584 25.5809L371.589 25.5939L371.596 25.6066L372.496 25.1719ZM370.984 23.625L370.514 24.5074L370.525 24.5135L370.537 24.5194L370.984 23.625ZM365.922 23.5195L365.513 22.6069L365.501 22.6125L365.922 23.5195ZM364.094 28.0898L363.22 28.5755L363.236 28.6049L363.254 28.6331L364.094 28.0898ZM365.254 29.2148L364.691 30.0411L364.704 30.05L364.717 30.0585L365.254 29.2148ZM367.223 30.1289L366.89 31.0719L366.902 31.0763L366.915 31.0804L367.223 30.1289ZM370.105 30.832L369.921 31.8149L369.925 31.8156L370.105 30.832ZM382.691 36.5273L381.936 37.1827L381.942 37.189L382.691 36.5273ZM383.641 47.6367L384.517 48.1186L384.52 48.1125L383.641 47.6367ZM380.301 51.3633L380.888 52.1726L380.897 52.1664L380.301 51.3633ZM358.961 52.7695L358.497 53.6555L358.504 53.6589L358.961 52.7695ZM353.266 47.8477L352.421 48.3839L352.429 48.3954L353.266 47.8477ZM351.367 41.8008V40.8008H350.367V41.8008H351.367ZM362.406 41.8008L363.405 41.7608L363.367 40.8008H362.406V41.8008ZM363.25 44.6836L362.426 45.2501L362.432 45.2587L362.438 45.2672L363.25 44.6836ZM371.16 46.4062L370.773 45.484L370.763 45.4887L371.16 46.4062ZM372.812 45.1758L373.621 45.764L373.627 45.7555L373.633 45.7468L372.812 45.1758ZM374.375 43.3125C374.375 42.4042 374.057 41.5939 373.432 40.9363L371.982 42.3137C372.248 42.5936 372.375 42.9083 372.375 43.3125H374.375ZM373.466 40.9742C372.878 40.2877 371.935 39.7693 370.804 39.3511L370.11 41.2271C371.135 41.6057 371.692 41.9779 371.948 42.2758L373.466 40.9742ZM370.821 39.3578C369.671 38.9076 368.1 38.4725 366.134 38.0462L365.71 40.0007C367.635 40.4181 369.087 40.8267 370.093 41.2203L370.821 39.3578ZM366.132 38.0458C364.332 37.6584 362.64 37.1469 361.055 36.5129L360.312 38.3699C362.009 39.0484 363.809 39.5916 365.712 40.0011L366.132 38.0458ZM361.06 36.5148C359.515 35.888 358.178 35.1338 357.039 34.2582L355.82 35.8434C357.119 36.8427 358.618 37.6823 360.308 38.368L361.06 36.5148ZM357.039 34.2582C355.926 33.4014 355.058 32.3933 354.425 31.2321L352.669 32.1898C353.442 33.6067 354.496 34.8252 355.82 35.8434L357.039 34.2582ZM354.431 31.2445C353.838 30.1185 353.527 28.806 353.527 27.2812H351.527C351.527 29.0846 351.897 30.7252 352.662 32.1773L354.431 31.2445ZM353.527 27.2812C353.527 25.8093 353.836 24.4329 354.45 23.1403L352.644 22.2816C351.899 23.8484 351.527 25.5188 351.527 27.2812H353.527ZM354.447 23.1465C355.083 21.8323 356.009 20.6671 357.242 19.6504L355.969 18.1074C354.53 19.2938 353.417 20.6833 352.647 22.2754L354.447 23.1465ZM357.243 19.6493C358.491 18.6163 360.028 17.7931 361.872 17.1931L361.253 15.2912C359.207 15.9569 357.439 16.8915 355.968 18.1085L357.243 19.6493ZM361.882 17.1897C363.705 16.5746 365.809 16.2578 368.207 16.2578V14.2578C365.636 14.2578 363.31 14.5972 361.243 15.2947L361.882 17.1897ZM368.207 16.2578C371.529 16.2578 374.343 16.7701 376.676 17.7603L377.457 15.9194C374.821 14.8002 371.729 14.2578 368.207 14.2578V16.2578ZM376.683 17.7634C379.024 18.7352 380.772 20.0812 381.982 21.7795L383.611 20.6189C382.149 18.5672 380.078 17.007 377.45 15.9163L376.683 17.7634ZM381.991 21.791C383.216 23.4602 383.836 25.3943 383.836 27.6328H385.836C385.836 24.9963 385.096 22.6414 383.603 20.6074L381.991 21.791ZM384.836 26.6328H372.988V28.6328H384.836V26.6328ZM373.988 27.6328C373.988 26.5612 373.806 25.5842 373.397 24.7371L371.596 25.6066C371.843 26.1189 371.988 26.7826 371.988 27.6328H373.988ZM373.409 24.7628C373.004 23.8602 372.329 23.1792 371.432 22.7306L370.537 24.5194C371.046 24.7739 371.379 25.1241 371.584 25.5809L373.409 24.7628ZM371.455 22.7426C370.555 22.2626 369.436 22.0625 368.172 22.0625V24.0625C369.251 24.0625 370.008 24.2374 370.514 24.5074L371.455 22.7426ZM368.172 22.0625C367.225 22.0625 366.334 22.239 365.513 22.607L366.331 24.432C366.869 24.1906 367.478 24.0625 368.172 24.0625V22.0625ZM365.501 22.6125C364.705 22.982 364.041 23.5065 363.536 24.1908L365.144 25.3795C365.435 24.9857 365.826 24.6665 366.343 24.4265L365.501 22.6125ZM363.536 24.1908C362.999 24.9166 362.742 25.762 362.742 26.6836H364.742C364.742 26.152 364.884 25.7319 365.144 25.3795L363.536 24.1908ZM362.742 26.6836C362.742 27.3572 362.897 27.9949 363.22 28.5755L364.968 27.6042C364.822 27.341 364.742 27.0413 364.742 26.6836H362.742ZM363.254 28.6331C363.603 29.1725 364.098 29.637 364.691 30.0411L365.817 28.3886C365.379 28.0896 365.1 27.8041 364.933 27.5466L363.254 28.6331ZM364.717 30.0585C365.316 30.4395 366.046 30.7742 366.89 31.0719L367.555 29.1859C366.805 28.9211 366.223 28.6464 365.791 28.3712L364.717 30.0585ZM366.915 31.0804C367.764 31.355 368.768 31.5988 369.921 31.8149L370.29 29.8492C369.193 29.6434 368.275 29.4184 367.53 29.1775L366.915 31.0804ZM369.925 31.8156C372.423 32.2739 374.752 32.9255 376.914 33.7678L377.64 31.9041C375.35 31.012 372.898 30.3277 370.286 29.8485L369.925 31.8156ZM376.914 33.7678C379.01 34.5839 380.673 35.727 381.936 37.1827L383.447 35.872C381.944 34.1402 379.998 32.8223 377.64 31.9041L376.914 33.7678ZM381.942 37.189C383.147 38.5551 383.801 40.4419 383.801 42.9609H385.801C385.801 40.0894 385.048 37.6871 383.441 35.8657L381.942 37.189ZM383.801 42.9609C383.801 44.4889 383.452 45.883 382.761 47.1609L384.52 48.1125C385.376 46.531 385.801 44.808 385.801 42.9609H383.801ZM382.764 47.1548C382.069 48.4199 381.057 49.5568 379.705 50.5602L380.897 52.1664C382.45 51.0135 383.666 49.666 384.517 48.1186L382.764 47.1548ZM379.713 50.554C378.37 51.5292 376.733 52.3036 374.786 52.8631L375.339 54.7853C377.47 54.173 379.326 53.3067 380.888 52.1726L379.713 50.554ZM374.786 52.8631C372.853 53.4186 370.652 53.7031 368.172 53.7031V55.7031C370.802 55.7031 373.194 55.4017 375.339 54.7853L374.786 52.8631ZM368.172 53.7031C364.654 53.7031 361.75 53.0786 359.418 51.8801L358.504 53.6589C361.188 55.0386 364.424 55.7031 368.172 55.7031V53.7031ZM359.425 51.8835C357.037 50.6341 355.281 49.0996 354.102 47.2999L352.429 48.3954C353.829 50.5332 355.869 52.2799 358.497 53.6555L359.425 51.8835ZM354.11 47.3114C352.93 45.4538 352.367 43.6215 352.367 41.8008H350.367C350.367 44.0582 351.07 46.2572 352.422 48.3839L354.11 47.3114ZM351.367 42.8008H362.406V40.8008H351.367V42.8008ZM361.407 41.8407C361.459 43.1475 361.777 44.3056 362.426 45.2501L364.074 44.1171C363.692 43.5615 363.447 42.7978 363.405 41.7608L361.407 41.8407ZM362.438 45.2672C363.093 46.1789 363.965 46.8468 365.027 47.2661L365.762 45.4058C365.043 45.1219 364.485 44.6883 364.062 44.1L362.438 45.2672ZM365.027 47.2661C366.058 47.6729 367.218 47.8633 368.488 47.8633V45.8633C367.415 45.8633 366.512 45.7021 365.762 45.4058L365.027 47.2661ZM368.488 47.8633C369.651 47.8633 370.689 47.7002 371.558 47.3238L370.763 45.4887C370.225 45.7216 369.481 45.8633 368.488 45.8633V47.8633ZM371.547 47.3284C372.402 46.9697 373.116 46.4586 373.621 45.764L372.004 44.5876C371.759 44.9242 371.371 45.2335 370.773 45.4841L371.547 47.3284ZM373.633 45.7468C374.133 45.0281 374.375 44.2046 374.375 43.3125H372.375C372.375 43.8267 372.242 44.2453 371.992 44.6047L373.633 45.7468Z" fill="black" mask="url(#path-1-outside-1_3_151)"/>
</g>
<defs>
<filter id="filter0_d_3_151" x="0.902344" y="0" width="387.934" height="62.7031" filterUnits="userSpaceOnUse" color-interpolation-filters="sRGB">
<feFlood flood-opacity="0" result="BackgroundImageFix"/>
<feColorMatrix in="SourceAlpha" type="matrix" values="0 0 0 0 0 0 0 0 0 0 0 0 0 0 0 0 0 0 127 0" result="hardAlpha"/>
<feOffset dy="4"/>
<feGaussianBlur stdDeviation="2"/>
<feComposite in2="hardAlpha" operator="out"/>
<feColorMatrix type="matrix" values="0 0 0 0 0 0 0 0 0 0 0 0 0 0 0 0 0 0 0.25 0"/>
<feBlend mode="normal" in2="BackgroundImageFix" result="effect1_dropShadow_3_151"/>
<feBlend mode="normal" in="SourceGraphic" in2="effect1_dropShadow_3_151" result="shape"/>
</filter>
</defs>
</svg>
